<svg width="129" height="40" viewBox="0 0 129 40" fill="none" xmlns="http://www.w3.org/2000/svg">
<path d="M9.10757 34.1169C3.69165 34.1169 0.75 30.1795 0.75 25.2461C0.75 20.2623 4.21255 16.1738 9.89784 16.1738C11.407 16.1738 12.7164 16.3734 13.8545 16.9721V20.1868C12.3453 19.2896 11.1359 19.1134 10.0227 19.1134C6.16592 19.1134 4.74237 21.9811 4.74237 24.9962C4.74237 28.36 6.53519 31.0263 9.67485 31.0263C11.0609 31.0263 12.1759 30.6398 13.5102 29.917L14.4718 32.5222C12.472 33.7933 10.763 34.1169 9.10757 34.1169ZM70.0081 34.1169C66.0015 34.1169 63.95 31.1522 63.95 27.6139C63.95 23.6513 66.6704 21.0336 70.3042 21.0336C71.9115 21.0336 72.7517 21.3572 73.4189 21.7563V24.5988C72.5288 23.9498 71.8116 23.725 70.8233 23.725C68.7719 23.725 67.45 25.2461 67.45 27.4395C67.45 29.4082 68.474 31.3266 70.7734 31.3266C71.4156 31.3266 72.2665 31.0461 73.1799 30.5733L74.0362 32.9213C72.9997 33.6189 71.2693 34.1169 70.0081 34.1169ZM81.1521 24.1242V33.8688H77.5915V24.1242H74.1307V21.2835H85.0607L84.2882 24.1242H81.1521ZM98.3703 22.7542C98.3703 27.1393 98.1973 29.4334 97.407 30.4798C97.011 31.003 96.3938 31.3536 95.7498 31.4506L96.7381 34.1169C97.5533 34.0918 98.8163 33.743 99.6815 32.871C100.82 31.7491 101.189 30.3287 101.362 28.8329C101.51 27.5618 101.61 26.0677 101.61 24.7462V24.1224H104.395V33.867H107.955V21.2817H98.3703V22.7542ZM57.9971 21.0336C56.6128 21.0336 55.5496 21.7078 54.6345 22.4305L54.2384 21.2835H51.2468V39.9997L54.8075 38.903V33.5938C55.4515 33.9425 56.2917 34.1169 57.2068 34.1169C60.8906 34.1169 63.1151 30.9526 63.1151 27.2148C63.1151 23.227 60.8656 21.0336 57.9971 21.0336ZM56.3417 31.5262C55.6977 31.5262 55.2035 31.3014 54.8075 31.0281V25.0717C55.2285 24.4244 56.3417 23.6513 57.28 23.6513C58.7142 23.6513 59.5545 24.5736 59.5545 27.1662C59.5545 29.3093 58.7642 31.5262 56.3417 31.5262ZM90.1769 21.0336C88.4947 21.0336 86.866 21.2961 85.157 22.4108L86.2362 24.5826C87.0747 24.1062 88.1539 23.7358 89.4169 23.7358C90.6514 23.7358 91.7556 24.286 91.7556 25.6092V25.8232L89.5971 25.9059C86.4467 26.012 84.3186 27.3892 84.3186 30.0375C84.3186 32.5294 86.1024 34.1169 88.4679 34.1169C90.0734 34.1169 91.1759 33.5092 91.9893 32.7667L92.5423 33.8688H95.3288V25.6955C95.3288 22.3838 93.4896 21.0336 90.1769 21.0336ZM91.7556 30.7531C91.4149 31.0173 90.7031 31.3356 89.7577 31.3356C88.5464 31.3356 87.8649 30.7261 87.8649 29.775C87.8649 28.8203 88.5999 28.2917 90.1251 28.2378L91.7556 28.1856V30.7531ZM114.871 25.3701H113.041V20.7351L109.48 21.697V33.8688H114.031C117.344 33.8688 120.435 32.9699 120.435 29.5071C120.435 26.5675 117.938 25.3701 114.871 25.3701ZM114.277 31.3859H113.041V27.8728H114.229C115.489 27.8728 116.875 28.0724 116.875 29.5664C116.875 31.0371 115.687 31.3859 114.277 31.3859ZM35.2506 27.0152V26.9145C36.4119 26.6664 37.377 25.8933 37.377 24.2482C37.377 22.2849 35.7412 21.5693 34.1339 21.3518C33.6415 21.2853 32.5623 21.2835 31.9611 21.2835H26.8716V33.8688H31.1459C31.6186 33.8688 32.3232 33.867 32.8727 33.8508C35.1204 33.743 37.8961 32.9339 37.8961 30.0051C37.8961 28.2108 36.931 27.3137 35.2506 27.0152ZM30.5019 23.6801H31.9611C33.4185 23.6801 33.9644 24.1296 33.9644 24.9027C33.9644 25.8735 33.0743 26.172 31.5901 26.172H30.5019V23.6801ZM31.8862 31.4812H30.4269V28.3906H31.7131C33.4185 28.3906 34.3337 28.7897 34.3337 29.9116C34.3337 31.1072 33.1224 31.4812 31.8862 31.4812ZM25.6996 27.4647C25.6996 23.5758 23.3252 21.0336 19.9126 21.0336C16.1789 21.0336 14.0775 24.0738 14.0775 27.6139C14.0775 30.9275 15.9078 34.1169 20.3586 34.1169C21.866 34.1169 23.5464 33.7699 25.2786 32.6714L24.4866 30.4043C23.0773 31.0785 22.1621 31.3014 20.9509 31.3014C19.2936 31.3014 17.7113 30.255 17.6364 28.5596H25.6996V27.4647ZM17.5633 26.0947C17.5633 24.9476 18.3803 23.6513 19.8127 23.6513C21.3237 23.6513 21.9891 24.8973 22.064 26.0947H17.5633ZM50.2282 27.4647C50.2282 23.5758 47.8539 21.0336 44.4413 21.0336C40.7076 21.0336 38.6061 24.0738 38.6061 27.6139C38.6061 30.9275 40.4364 34.1169 44.8872 34.1169C46.3946 34.1169 48.0769 33.7699 49.8072 32.6714L49.0152 30.4043C47.6077 31.0785 46.6908 31.3014 45.4795 31.3014C43.824 31.3014 42.2417 30.255 42.1668 28.5596H50.2282V27.4647ZM42.0919 26.0947C42.0919 24.9476 42.9089 23.6513 44.3414 23.6513C45.8505 23.6513 46.5177 24.8973 46.5926 26.0947H42.0919Z" fill="#002F6C"/>
<path d="M126.774 12.3932C126.571 12.5352 126.362 12.6467 126.15 12.715C125.445 12.9397 124.576 12.733 123.797 12.4094C123.24 12.1774 122.657 11.8772 122.045 11.4978C122.364 10.7121 122.664 9.81498 122.919 8.82254C123.315 7.28173 123.504 5.92431 123.544 4.7323C123.568 3.99515 123.533 3.32094 123.453 2.70785C123.342 1.86463 123.085 1.00703 122.539 0.50182C122.366 0.345403 122.156 0.214155 121.92 0.10628C123.035 -0.0159776 124.025 -0.0249663 124.899 0.0397584C125.818 0.118866 126.753 0.3472 127.299 0.886572C127.844 1.42594 128.085 2.36625 128.182 3.28858C128.271 4.16955 128.278 5.16739 128.175 6.29648C128.069 7.40938 127.855 8.64634 127.504 10.0181H127.506C127.284 10.8668 127.031 11.6776 126.774 12.3932ZM113.311 11.6956C113.29 11.4475 113.299 11.2084 113.347 10.989C113.506 10.2609 114.117 9.60822 114.786 9.08683C115.264 8.71825 115.812 8.35868 116.445 8.01348C116.961 8.68589 117.582 9.39427 118.308 10.1134C119.433 11.2299 120.506 12.0731 121.51 12.7024C122.131 13.0926 122.726 13.3982 123.294 13.6355C124.073 13.9592 124.939 14.1659 125.647 13.9412C125.868 13.8675 126.086 13.7506 126.296 13.5996C125.843 14.6334 125.356 15.5036 124.864 16.2335C124.336 16.9958 123.674 17.6988 122.937 17.9038C122.2 18.1105 121.273 17.8516 120.432 17.4741C119.631 17.1127 118.77 16.6183 117.851 15.9638C116.948 15.3166 115.99 14.5111 114.988 13.5169C114.369 12.9038 113.796 12.2781 113.311 11.6956ZM120.623 0.291466C120.848 0.397542 121.048 0.525193 121.212 0.676218C121.758 1.17963 122.013 2.04083 122.127 2.88405C122.206 3.48455 122.239 4.14438 122.22 4.86894C121.383 4.9822 120.464 5.16919 119.483 5.44427C117.962 5.86857 116.7 6.38278 115.657 6.94552C115.011 7.29252 114.449 7.65929 113.964 8.03685C113.295 8.55465 112.685 9.20729 112.524 9.93724C112.476 10.1674 112.467 10.4155 112.494 10.6744C111.832 9.76284 111.327 8.90164 110.947 8.10697C110.555 7.26555 110.284 6.33603 110.475 5.5899C110.666 4.84377 111.352 4.16236 112.096 3.61939C112.808 3.0998 113.662 2.59458 114.685 2.12174C115.693 1.65788 116.865 1.22458 118.219 0.847018C119.057 0.609695 119.881 0.424511 120.623 0.291466Z" fill="#002F6C"/>
</svg>
