<svg width="24" height="20" viewBox="0 0 24 20" fill="none" xmlns="http://www.w3.org/2000/svg">
<path d="M7.19967 0C3.49186 0 0.333008 2.7724 0.333008 6.37306C0.333008 8.857 1.49614 10.9482 3.03766 12.6806C4.57389 14.4069 6.55587 15.856 8.34764 17.0689L11.4391 19.1615C11.7777 19.3906 12.2217 19.3906 12.5602 19.1615L15.6517 17.0689C17.4435 15.856 19.4255 14.4069 20.9617 12.6806C22.5032 10.9482 23.6663 8.857 23.6663 6.37306C23.6663 2.7724 20.5075 0 16.7997 0C14.8884 0 13.2066 0.896185 11.9997 2.05578C10.7928 0.896185 9.11097 0 7.19967 0Z" fill="white"/>
</svg>
