<svg width="28" height="26" viewBox="0 0 28 26" fill="none" xmlns="http://www.w3.org/2000/svg">
<path d="M10.5005 23.2C10.6983 23.3767 10.9981 23.1842 10.9239 22.9296L7.5646 11.412C7.50205 11.1976 7.31244 11.045 7.08963 11.0286C6.54597 10.9887 6.00257 10.944 5.45949 10.8946L0.965594 10.4861C0.755792 10.467 0.608114 10.6871 0.707442 10.8728C3.1382 15.4193 6.63847 19.7513 10.5005 23.2Z" fill="white"/>
<path d="M13.7962 25.6348C13.8233 25.7277 13.9032 25.7976 14 25.7976C14.0968 25.7976 14.1768 25.7277 14.2039 25.6347L18.3157 11.537C18.367 11.3613 18.23 11.1873 18.0472 11.1952C15.3503 11.311 12.6498 11.311 9.9529 11.1952C9.77006 11.1873 9.63313 11.3613 9.68437 11.537L13.7962 25.6348Z" fill="white"/>
<path d="M17.0762 22.9296C17.0019 23.1842 17.3018 23.3766 17.4996 23.2C21.3616 19.7513 24.8619 15.4193 27.2926 10.8728C27.392 10.6871 27.2443 10.467 27.0345 10.4861L22.5406 10.8946C21.9975 10.944 21.4541 10.9887 20.9105 11.0286C20.6877 11.045 20.498 11.1976 20.4355 11.412L17.0762 22.9296Z" fill="white"/>
<path d="M27.068 8.47481C27.2712 8.45634 27.3792 8.22581 27.2634 8.05785L22.9463 1.79813C22.573 1.25682 21.9575 0.933594 21.2999 0.933594H17.9804C17.7909 0.933594 17.6619 1.1257 17.7335 1.30112L20.7425 8.66562C20.83 8.87968 21.0454 9.01315 21.276 8.99493C21.6373 8.96637 21.9985 8.93568 22.3595 8.90286L27.068 8.47481Z" fill="white"/>
<path d="M15.5535 1.2618C15.4706 1.06305 15.2765 0.933594 15.0611 0.933594H12.9389C12.7236 0.933594 12.5294 1.06305 12.4466 1.2618L9.30323 8.80596C9.23234 8.97611 9.35133 9.16514 9.53544 9.17405C12.5101 9.31805 15.49 9.31805 18.4646 9.17405C18.6488 9.16514 18.7677 8.97611 18.6969 8.80596L15.5535 1.2618Z" fill="white"/>
<path d="M10.2666 1.30112C10.3382 1.1257 10.2092 0.933594 10.0197 0.933594H6.70017C6.04261 0.933594 5.42706 1.25682 5.05374 1.79813L0.736694 8.05785C0.620856 8.22581 0.728876 8.45634 0.932075 8.47481L5.64056 8.90286C6.00161 8.93568 6.3628 8.96637 6.72412 8.99493C6.95464 9.01315 7.1701 8.87968 7.25756 8.66562L10.2666 1.30112Z" fill="white"/>
</svg>
