<svg width="33" height="32" viewBox="0 0 33 32" fill="none" xmlns="http://www.w3.org/2000/svg">
<path d="M29.8519 22.0605C29.4871 22.3134 29.1127 22.5118 28.7318 22.6334C27.4678 23.0334 25.9093 22.6654 24.5109 22.0893C23.5124 21.6765 22.466 21.142 21.3683 20.4667C21.9411 19.0682 22.4788 17.4712 22.9364 15.7046C23.6468 12.9619 23.986 10.5456 24.0564 8.42374C24.1012 7.11159 24.0372 5.91145 23.8932 4.82012C23.6948 3.31915 23.234 1.79257 22.2548 0.893268C21.9443 0.614835 21.5667 0.381207 21.1443 0.189184C23.1444 -0.028441 24.9205 -0.0444413 26.4885 0.0707721C28.1366 0.211588 29.8135 0.618035 30.7927 1.57815C31.772 2.53826 32.204 4.21205 32.3768 5.85384C32.5368 7.42203 32.5496 9.19823 32.364 11.2081C32.1752 13.1891 31.7912 15.391 31.1607 17.8328H31.1639C30.7671 19.3434 30.3127 20.7868 29.8519 22.0605ZM5.70042 20.8188C5.66202 20.3771 5.67803 19.9515 5.76443 19.561C6.04924 18.2649 7.14689 17.1032 8.34695 16.175C9.20458 15.519 10.187 14.8789 11.3231 14.2644C12.2479 15.4614 13.3616 16.7223 14.664 18.0025C16.6833 19.9899 18.6066 21.4909 20.4083 22.611C21.5219 23.3055 22.5908 23.8495 23.6084 24.272C25.0069 24.8481 26.5589 25.2161 27.8294 24.816C28.2262 24.6848 28.6166 24.4768 28.9943 24.208C28.1814 26.0482 27.3078 27.5972 26.4245 28.8965C25.4773 30.2535 24.29 31.5048 22.9684 31.8697C21.6467 32.2377 19.9827 31.7769 18.4754 31.1048C17.0385 30.4615 15.4929 29.5814 13.8448 28.4165C12.2255 27.2643 10.507 25.8306 8.70856 24.0608C7.59811 22.9694 6.57086 21.8557 5.70042 20.8188ZM18.8178 0.518825C19.221 0.707647 19.5794 0.934873 19.8739 1.2037C20.8531 2.09981 21.3107 3.63279 21.5155 5.13376C21.6563 6.20269 21.7171 7.37722 21.6819 8.66697C20.1811 8.8686 18.533 9.20143 16.7729 9.69109C14.0432 10.4464 11.7807 11.3617 9.90862 12.3634C8.75016 12.9811 7.74212 13.6339 6.87169 14.306C5.67163 15.2277 4.57718 16.3895 4.28917 17.6888C4.20277 18.0985 4.18677 18.5401 4.23477 19.001C3.04752 17.3784 2.14187 15.8454 1.46024 14.4308C0.756209 12.9331 0.2698 11.2785 0.612215 9.95032C0.954629 8.62216 2.18667 7.40922 3.52113 6.44271C4.79799 5.5178 6.33086 4.6185 8.16454 3.7768C9.97261 2.95111 12.0751 2.17982 14.504 1.50774C16.0081 1.08529 17.4865 0.755652 18.8178 0.518825Z" fill="white"/>
</svg>
