<svg width="153" height="48" viewBox="0 0 153 48" fill="none" xmlns="http://www.w3.org/2000/svg">
<path d="M10.0291 40.9409C3.52998 40.9409 0 36.216 0 30.2959C0 24.3153 4.15506 19.4092 10.9774 19.4092C12.7884 19.4092 14.3597 19.6487 15.7254 20.3671V24.2247C13.9144 23.1481 12.463 22.9367 11.1272 22.9367C6.4991 22.9367 4.79084 26.3779 4.79084 29.996C4.79084 34.0326 6.94222 37.2322 10.7098 37.2322C12.3731 37.2322 13.711 36.7683 15.3123 35.901L16.4661 39.0272C14.0664 40.5526 12.0156 40.9409 10.0291 40.9409ZM83.1097 40.9409C78.3018 40.9409 75.84 37.3832 75.84 33.1373C75.84 28.3822 79.1045 25.2409 83.4651 25.2409C85.3938 25.2409 86.4021 25.6292 87.2027 26.1082V29.5192C86.1345 28.7403 85.2739 28.4706 84.088 28.4706C81.6262 28.4706 80.04 30.2959 80.04 32.928C80.04 35.2905 81.2687 37.5925 84.0281 37.5925C84.7987 37.5925 85.8198 37.2559 86.9158 36.6885L87.9434 39.5062C86.6996 40.3433 84.6232 40.9409 83.1097 40.9409ZM96.4826 28.9496V40.6432H92.2097V28.9496H88.0568V25.5408H101.173L100.246 28.9496H96.4826ZM117.144 27.3056C117.144 32.5677 116.937 35.3207 115.988 36.5763C115.513 37.2041 114.773 37.6249 114 37.7414L115.186 40.9409C116.164 40.9107 117.68 40.4922 118.718 39.4458C120.084 38.0995 120.527 36.3951 120.734 34.6001C120.912 33.0747 121.032 31.2818 121.032 29.6961V28.9474H124.373V40.641H128.646V25.5386H117.144V27.3056ZM68.6965 25.2409C67.0354 25.2409 65.7595 26.0499 64.6614 26.9172L64.1861 25.5408H60.5962V48.0002L64.869 46.6841V40.3131C65.6418 40.7316 66.65 40.9409 67.7482 40.9409C72.1687 40.9409 74.8381 37.1437 74.8381 32.6583C74.8381 27.873 72.1387 25.2409 68.6965 25.2409ZM66.71 37.832C65.9372 37.832 65.3442 37.5623 64.869 37.2343V30.0866C65.3742 29.3099 66.71 28.3822 67.836 28.3822C69.5571 28.3822 70.5653 29.489 70.5653 32.6001C70.5653 35.1718 69.617 37.832 66.71 37.832ZM107.312 25.2409C105.294 25.2409 103.339 25.5559 101.288 26.8935L102.583 29.4998C103.59 28.928 104.885 28.4836 106.4 28.4836C107.882 28.4836 109.207 29.1438 109.207 30.7317V30.9884L106.617 31.0877C102.836 31.215 100.282 32.8676 100.282 36.0456C100.282 39.0359 102.423 40.9409 105.261 40.9409C107.188 40.9409 108.511 40.2117 109.487 39.3206L110.151 40.6432H113.495V30.8352C113.495 26.8611 111.287 25.2409 107.312 25.2409ZM109.207 36.9042C108.798 37.2214 107.944 37.6033 106.809 37.6033C105.356 37.6033 104.538 36.8719 104.538 35.7306C104.538 34.5849 105.42 33.9507 107.25 33.8859L109.207 33.8234V36.9042ZM136.946 30.4447H134.749V24.8827L130.477 26.037V40.6432H135.937C139.913 40.6432 143.622 39.5644 143.622 35.4091C143.622 31.8816 140.625 30.4447 136.946 30.4447ZM136.233 37.6637H134.749V33.448H136.175C137.686 33.448 139.35 33.6874 139.35 35.4803C139.35 37.2451 137.924 37.6637 136.233 37.6637ZM41.4007 32.4188V32.298C42.7943 32.0003 43.9524 31.0726 43.9524 29.0985C43.9524 26.7425 41.9894 25.8838 40.0607 25.6227C39.4698 25.5429 38.1747 25.5408 37.4533 25.5408H31.346V40.6432H36.475C37.0423 40.6432 37.8879 40.641 38.5472 40.6216C41.2445 40.4922 44.5754 39.5213 44.5754 36.0067C44.5754 33.8536 43.4173 32.777 41.4007 32.4188ZM35.7022 28.4167H37.4533C39.2023 28.4167 39.8573 28.9561 39.8573 29.8838C39.8573 31.0488 38.7891 31.407 37.0081 31.407H35.7022V28.4167ZM37.3634 37.778H35.6123V34.0693H37.1558C39.2023 34.0693 40.3004 34.5483 40.3004 35.8945C40.3004 37.3293 38.8469 37.778 37.3634 37.778ZM29.9395 32.9582C29.9395 28.2916 27.0903 25.2409 22.9952 25.2409C18.5147 25.2409 15.993 28.8892 15.993 33.1373C15.993 37.1135 18.1894 40.9409 23.5303 40.9409C25.3392 40.9409 27.3557 40.5245 29.4343 39.2063L28.4839 36.4857C26.7927 37.2948 25.6946 37.5623 24.2411 37.5623C22.2524 37.5623 20.3536 36.3066 20.2637 34.2721H29.9395V32.9582ZM20.1759 31.3142C20.1759 29.9377 21.1563 28.3822 22.8753 28.3822C24.6885 28.3822 25.4869 29.8773 25.5768 31.3142H20.1759ZM59.3739 32.9582C59.3739 28.2916 56.5246 25.2409 52.4295 25.2409C47.9491 25.2409 45.4273 28.8892 45.4273 33.1373C45.4273 37.1135 47.6237 40.9409 52.9647 40.9409C54.7736 40.9409 56.7922 40.5245 58.8687 39.2063L57.9182 36.4857C56.2292 37.2948 55.1289 37.5623 53.6754 37.5623C51.6888 37.5623 49.7901 36.3066 49.7001 34.2721H59.3739V32.9582ZM49.6102 31.3142C49.6102 29.9377 50.5907 28.3822 52.3096 28.3822C54.1206 28.3822 54.9213 29.8773 55.0112 31.3142H49.6102Z" fill="white"/>
<path d="M151.228 14.8718C150.984 15.0423 150.734 15.176 150.479 15.258C149.633 15.5277 148.591 15.2796 147.655 14.8912C146.988 14.6129 146.288 14.2526 145.553 13.7974C145.936 12.8546 146.296 11.778 146.602 10.587C147.077 8.73808 147.304 7.10917 147.351 5.67875C147.381 4.79418 147.339 3.98513 147.242 3.24942C147.11 2.23756 146.801 1.20844 146.146 0.602185C145.939 0.414483 145.686 0.256985 145.403 0.127536C146.741 -0.0191731 147.929 -0.0299595 148.978 0.0477101C150.081 0.14264 151.203 0.41664 151.858 1.06389C152.513 1.71113 152.802 2.8395 152.917 3.94629C153.024 5.00346 153.033 6.20087 152.909 7.55577C152.782 8.89126 152.525 10.3756 152.104 12.0218H152.106C151.84 13.0401 151.536 14.0131 151.228 14.8718ZM135.072 14.0347C135.047 13.737 135.058 13.45 135.115 13.1868C135.306 12.313 136.04 11.5299 136.843 10.9042C137.417 10.4619 138.074 10.0304 138.834 9.61617C139.452 10.4231 140.197 11.2731 141.069 12.1361C142.419 13.4759 143.706 14.4878 144.911 15.2429C145.656 15.7111 146.371 16.0778 147.052 16.3626C147.987 16.751 149.025 16.9991 149.875 16.7294C150.141 16.641 150.402 16.5007 150.654 16.3195C150.111 17.56 149.526 18.6043 148.936 19.4802C148.302 20.395 147.508 21.2386 146.624 21.4845C145.739 21.7326 144.626 21.4219 143.618 20.9689C142.657 20.5352 141.623 19.9419 140.521 19.1566C139.437 18.3799 138.288 17.4133 137.085 16.2202C136.342 15.4845 135.655 14.7337 135.072 14.0347ZM143.847 0.349759C144.117 0.477051 144.357 0.630232 144.554 0.811461C145.209 1.41556 145.515 2.44899 145.652 3.46086C145.746 4.18146 145.787 4.97326 145.763 5.84272C144.759 5.97865 143.657 6.20302 142.479 6.53312C140.653 7.04229 139.14 7.65933 137.887 8.33462C137.113 8.75102 136.438 9.19114 135.856 9.64422C135.053 10.2656 134.321 11.0487 134.128 11.9247C134.071 12.2008 134.06 12.4986 134.092 12.8093C133.298 11.7154 132.692 10.682 132.236 9.72836C131.765 8.71865 131.44 7.60323 131.669 6.70788C131.898 5.81252 132.722 4.99483 133.615 4.34327C134.469 3.71975 135.494 3.1135 136.721 2.54608C137.93 1.98945 139.337 1.46949 140.961 1.01642C141.968 0.731633 142.957 0.509413 143.847 0.349759Z" fill="white"/>
</svg>
