<svg width="16" height="16" viewBox="0 0 16 16" fill="none" xmlns="http://www.w3.org/2000/svg">
<path fill-rule="evenodd" clip-rule="evenodd" d="M15.5507 2.21689C16.0388 1.72874 16.0388 0.93728 15.5507 0.449124C15.0625 -0.039031 14.2711 -0.039031 13.7829 0.449124L7.99933 6.23272L2.21591 0.449305C1.72776 -0.0388498 0.936303 -0.0388508 0.448148 0.449305C-0.0400078 0.93746 -0.0400073 1.72892 0.448148 2.21707L6.23156 8.00049L0.448333 13.7837C-0.0398218 14.2719 -0.0398223 15.0633 0.448333 15.5515C0.936488 16.0396 1.72795 16.0396 2.2161 15.5515L7.99933 9.76825L13.7827 15.5517C14.2709 16.0398 15.0623 16.0398 15.5505 15.5517C16.0387 15.0635 16.0387 14.2721 15.5505 13.7839L9.7671 8.00049L15.5507 2.21689Z" fill="#002F6C"/>
</svg>
