<svg width="26" height="20" viewBox="0 0 26 20" fill="none" xmlns="http://www.w3.org/2000/svg">
<path fill-rule="evenodd" clip-rule="evenodd" d="M25.9173 10.0013C25.9173 9.31095 25.3577 8.7513 24.6673 8.7513H1.33398C0.643628 8.7513 0.0839844 9.31095 0.0839844 10.0013C0.0839844 10.6917 0.643628 11.2513 1.33398 11.2513H24.6673C25.3577 11.2513 25.9173 10.6917 25.9173 10.0013Z" fill="#002F6C"/>
<path fill-rule="evenodd" clip-rule="evenodd" d="M25.9173 1.66797C25.9173 0.977613 25.3577 0.417969 24.6673 0.417969H1.33398C0.643628 0.417969 0.0839844 0.977613 0.0839844 1.66797C0.0839844 2.35832 0.643628 2.91797 1.33398 2.91797H24.6673C25.3577 2.91797 25.9173 2.35832 25.9173 1.66797Z" fill="#002F6C"/>
<path fill-rule="evenodd" clip-rule="evenodd" d="M25.9173 18.3346C25.9173 17.6443 25.3577 17.0846 24.6673 17.0846H1.33398C0.643628 17.0846 0.0839844 17.6443 0.0839844 18.3346C0.0839844 19.025 0.643628 19.5846 1.33398 19.5846H24.6673C25.3577 19.5846 25.9173 19.025 25.9173 18.3346Z" fill="#002F6C"/>
</svg>
