<svg width="44" height="52" viewBox="0 0 44 52" fill="none" xmlns="http://www.w3.org/2000/svg">
<path fill-rule="evenodd" clip-rule="evenodd" d="M30.3801 12.48C30.3801 17.075 26.6278 20.8 21.9992 20.8C17.3705 20.8 13.6182 17.075 13.6182 12.48C13.6182 7.88499 17.3705 4.16 21.9992 4.16C26.6278 4.16 30.3801 7.88499 30.3801 12.48ZM34.5706 12.48C34.5706 19.3725 28.9422 24.96 21.9992 24.96C15.0562 24.96 9.42773 19.3725 9.42773 12.48C9.42773 5.58749 15.0562 0 21.9992 0C28.9422 0 34.5706 5.58749 34.5706 12.48ZM27.6245 31.0607C34.7068 33.3988 39.8095 40.0313 39.8095 47.8415H13.619V52.0015H41.9048C43.0619 52.0015 44 51.0703 44 49.9215V47.8415C44 38.1865 37.6903 29.9998 28.9469 27.1133L27.6245 31.0607ZM4.19048 47.8415C4.19048 40.0897 8.65133 33.4745 15.3834 31.0415L13.9499 27.1325C5.40277 30.2214 0 38.5159 0 47.8415H4.19048Z" fill="#FF0000"/>
</svg>
