<svg width="10" height="10" viewBox="0 0 10 10" fill="none" xmlns="http://www.w3.org/2000/svg">
<path fill-rule="evenodd" clip-rule="evenodd" d="M9.53022 1.52984C9.82311 1.23695 9.82311 0.762075 9.53022 0.469182C9.23733 0.176288 8.76245 0.176288 8.46956 0.469182L4.9994 3.93934L1.52935 0.469289C1.23646 0.176396 0.761587 0.176396 0.468693 0.469289C0.1758 0.762182 0.1758 1.23706 0.468693 1.52995L3.93874 5L0.468806 8.46994C0.175913 8.76283 0.175913 9.2377 0.468806 9.5306C0.761699 9.82349 1.23657 9.82349 1.52947 9.5306L4.9994 6.06066L8.46945 9.5307C8.76234 9.8236 9.23722 9.8236 9.53011 9.5307C9.823 9.23781 9.823 8.76294 9.53011 8.47005L6.06006 5L9.53022 1.52984Z" fill="black"/>
</svg>
