<svg width="47" height="44" viewBox="0 0 47 44" fill="none" xmlns="http://www.w3.org/2000/svg">
<path d="M25.4107 1.62487C24.5594 0.125047 22.4406 0.125041 21.5893 1.62487L15.5936 12.1874C15.1731 12.9283 14.4462 13.4339 13.6176 13.5618L2.38139 15.2967C0.494185 15.5881 -0.167796 18.0239 1.30194 19.2686L9.67245 26.3578C10.4473 27.014 10.8116 28.0491 10.6234 29.0595L8.43379 40.814C8.08766 42.6722 9.99586 44.1159 11.6331 43.2347L22.2135 37.5397C23.0187 37.1063 23.9813 37.1063 24.7865 37.5397L35.3669 43.2347C37.0041 44.1159 38.9123 42.6722 38.5662 40.814L36.3766 29.0595C36.1884 28.0491 36.5527 27.014 37.3275 26.3578L45.6981 19.2686C47.1678 18.0239 46.5058 15.5881 44.6186 15.2967L33.3824 13.5618C32.5538 13.4339 31.8269 12.9283 31.4064 12.1874L25.4107 1.62487Z" fill="url(#paint0_linear_1931_8763)"/>
<defs>
<linearGradient id="paint0_linear_1931_8763" x1="0.5" y1="22" x2="46.5" y2="22" gradientUnits="userSpaceOnUse">
<stop stop-color="#EDEAE8"/>
<stop offset="0.25" stop-color="#4C5354"/>
<stop offset="0.6" stop-color="#E8E8E9"/>
<stop offset="0.85" stop-color="#989DA2"/>
<stop offset="1" stop-color="#B1B1B1"/>
</linearGradient>
</defs>
</svg>
