<svg width="321" height="394" viewBox="0 0 321 394" fill="none" xmlns="http://www.w3.org/2000/svg">
<path fill-rule="evenodd" clip-rule="evenodd" d="M133.28 235.001C182.393 257.902 240.656 236.62 263.485 187.663C286.314 138.705 265.167 80.3936 216.054 57.4919C166.941 34.5901 108.678 55.8722 85.8486 104.83C63.0193 153.787 84.167 212.099 133.28 235.001ZM128.179 245.94C183.238 271.615 248.686 247.794 274.361 192.734C300.035 137.675 276.214 72.2271 221.155 46.5525C166.095 20.8778 100.648 44.6989 74.9729 99.7583C49.2983 154.818 73.1194 220.266 128.179 245.94Z" fill="#FF0000"/>
<path fill-rule="evenodd" clip-rule="evenodd" d="M75.4081 344.91L117.67 254.279L128.546 259.351L86.2838 349.981L75.4081 344.91Z" fill="#FF0000"/>
</svg>
